<?xml version="1.0" encoding="utf-8"?>
<svg viewBox="-1000 -200 1900 700" xmlns="http://www.w3.org/2000/svg">
  <path d="M -703.392 155.364 C -703.392 165.249 -711.383 173.237 -721.267 173.237 L -774.889 173.237 C -788.65 173.237 -797.249 158.347 -790.366 146.426 C -787.166 140.903 -781.27 137.489 -774.889 137.489 L -721.267 137.489 C -711.383 137.489 -703.392 145.498 -703.392 155.364 Z M -774.889 65.994 C -788.65 65.994 -797.249 80.902 -790.366 92.807 C -787.166 98.344 -781.27 101.742 -774.889 101.742 L -667.645 101.742 C -653.881 101.742 -645.284 86.854 -652.166 74.931 C -655.349 69.409 -661.247 65.994 -667.645 65.994 Z M -732.401 277.869 C -752.617 274.189 -771.922 266.628 -789.239 255.582 C -794.192 252.435 -800.393 251.919 -805.811 254.206 L -834.872 266.503 L -825.309 237.673 C -823.397 231.898 -824.541 225.555 -828.367 220.819 C -906.277 124.567 -850.78 -19.926 -728.469 -39.265 C -643.479 -52.705 -562.958 3.116 -545.746 87.425 C -543.403 100.993 -527.265 106.942 -516.683 98.134 C -511.482 93.806 -509.175 86.906 -510.732 80.312 C -540.921 -68.007 -720.338 -128.01 -833.692 -27.699 C -909.638 39.524 -921.99 153.471 -862.218 235.404 L -881.218 292.743 C -885.546 305.79 -874.106 318.639 -860.647 315.871 C -859.484 315.621 -858.359 315.28 -857.286 314.816 L -800.252 290.668 C -781.181 301.534 -760.412 309.097 -738.819 313.01 C -725.36 315.833 -713.883 303.001 -718.193 289.936 C -720.283 283.556 -725.771 278.907 -732.401 277.854 Z" style="paint-order: stroke; fill: rgb(244, 244, 244);"/>
  <path d="M -488.91 280.48 L -488.91 208.985 C -488.961 166.537 -518.828 129.964 -560.403 121.423 L -560.403 119.617 C -560.403 105.854 -575.292 97.256 -587.214 104.138 C -592.736 107.335 -596.149 113.235 -596.149 119.617 L -596.149 121.423 C -637.724 129.964 -667.592 166.537 -667.645 208.985 L -667.645 280.48 C -681.409 280.48 -690.006 295.388 -683.123 307.292 C -679.923 312.832 -674.027 316.226 -667.645 316.226 L -596.149 316.226 L -596.149 334.1 C -596.149 347.865 -581.243 356.462 -569.341 349.58 C -563.799 346.399 -560.403 340.5 -560.403 334.1 L -560.403 316.226 L -488.91 316.226 C -475.144 316.226 -466.547 301.337 -473.429 289.416 C -476.611 283.894 -482.509 280.48 -488.91 280.48 Z" style="fill: rgb(255, 114, 0);"/>
  <g fill="#1f191a" transform="matrix(1, 0, 0, 1, -427.953857, -78.749847)">
    <path d="M884 443.9 c-30 -4.9 -53.9 -17.2 -79 -40.7 l-8.4 -7.9 14.9 -17.6 c8.3 -9.7 15.4 -17.6 15.9 -17.6 0.5 -0.1 3.2 1.8 6 4.2 17.4 14.8 37 23.2 59.7 25.7 38.7 4.3 68.8 -13.9 75.4 -45.5 0.8 -4 1.5 -12.5 1.5 -19.8 l0 -12.8 -3.7 3.7 c-13.9 13.5 -32.6 23.1 -52.4 26.9 -11.9 2.2 -33.8 2.1 -45.4 -0.4 -44.9 -9.4 -78.1 -43.9 -89.1 -92.6 -2.4 -10.8 -3 -39.8 -1 -52.3 8.3 -52.8 45.8 -92.4 94.8 -100.2 11.3 -1.8 37 -0.8 47 1.8 16.9 4.5 32.5 13 44 23.9 l5.8 5.6 0 -13.6 0 -13.7 31.5 0 31.5 0 0 55 0 55 -31.5 0 c-24.4 0 -31.6 -0.3 -31.9 -1.2 -0.2 -0.7 -0.9 -3.8 -1.6 -6.8 -2.8 -12.3 -11.7 -27.2 -20.7 -34.7 -12.7 -10.6 -25.6 -15.6 -40.8 -15.7 -12 -0.1 -18.3 1.3 -29.4 6.6 -21.5 10.3 -36 34.5 -36.1 60.4 0 26.9 13.9 50.3 36.5 61.5 25.4 12.5 56.6 6.4 75.5 -14.9 5.4 -6.1 13.5 -20.9 14.6 -26.7 l0.6 -3.5 32.4 0 32.4 0 0 52.3 c0 57.4 -0.4 62.3 -6.1 80.2 -13.1 41.2 -46.5 67.9 -93.4 75 -11 1.6 -40.3 1.9 -49.5 0.4z" style="stroke: rgb(186, 218, 85); fill: rgb(244, 244, 244);"/>
    <path d="M1104.5 441.3 c0.8 -2.1 10.2 -26 20.9 -53.1 l19.4 -49.3 -42.8 -116.4 c-23.6 -64 -43.1 -117.3 -43.5 -118.4 -0.6 -2.1 -0.5 -2.1 32.7 -2.1 l33.3 0 26 77.4 c14.3 42.6 26.3 76.9 26.6 76.3 0.3 -0.7 12.2 -35.5 26.5 -77.4 l25.9 -76.3 33.3 0 c18.2 0 33.2 0.3 33.2 0.8 0 0.4 -28.3 77.4 -62.8 171.2 l-62.8 170.5 -33.7 0.3 -33.7 0.2 1.5 -3.7z" style="stroke: rgb(186, 218, 85); fill: rgb(244, 244, 244);"/>
    <path d="M 588.5 343.8 C 550.4 341.2 516.6 318.2 498.3 282.4 C 488.3 262.8 484 244.2 484 219.9 C 484 202.6 485.8 190.6 490.6 176 C 504.4 134.2 536.4 105.3 577.3 97.5 C 587.5 95.6 609.2 95.6 620.3 97.5 C 639.9 100.9 657.9 110 672.3 123.7 L 677 128.2 L 677 66.1 C 677 12.4 677.036 3.866 677.036 3.866 C 677.036 3.866 693.474 10.992 709.553 18.008 C 725.023 24.757 740.16 31.404 740 31.5 L 740 185.8 L 740 340 L 708.5 340 L 677 340 L 677 326 L 677 311.9 L 673.3 315.6 C 660.5 328.1 643.3 337.4 625.1 341.7 C 616.2 343.7 600.7 344.7 588.5 343.8 Z M 627 286.4 C 655 279.9 675.4 254.2 676.8 223.9 C 678.2 191.8 660.7 165.4 631.5 155.4 C 625 153.2 621.6 152.7 613.5 152.6 C 601.3 152.5 595.1 153.9 584.1 159.3 C 551.7 175 538.5 218.1 555.5 252.5 C 563.6 268.9 579.3 281.8 597 286.4 C 604.3 288.3 618.9 288.3 627 286.4 Z" style="stroke: rgb(186, 218, 85); fill: rgb(244, 244, 244);"/>
    <path d="M71.7 338.3 c-0.5 -0.9 -71.7 -234.9 -71.7 -235.8 0 -0.3 14.7 -0.5 32.8 -0.5 l32.7 0 19.9 76.5 c11 42.1 20.2 76.9 20.6 77.4 0.3 0.6 9.5 -33.9 20.5 -76.5 l19.9 -77.4 32.2 0 32.3 0 0.9 3.2 c0.4 1.8 9.4 36.5 19.8 77 10.4 40.6 19.2 73.8 19.5 73.8 0.3 0 9.4 -34.1 20.3 -75.7 10.9 -41.7 20 -76.3 20.3 -77 0.4 -1 7.4 -1.3 32.9 -1.3 17.8 0 32.4 0.3 32.4 0.8 0.1 0.4 -16 53.7 -35.6 118.5 l-35.8 117.7 -33.3 0 c-18.3 0 -33.3 -0.2 -33.3 -0.5 0 -1 -39 -146.9 -39.8 -148.8 -0.5 -1.2 -7.6 23.9 -20.6 72.5 -10.9 40.9 -20.1 74.9 -20.3 75.6 -0.4 0.9 -8 1.2 -33.3 1.2 -18.1 0 -33.1 -0.3 -33.3 -0.7z" style="stroke: rgb(186, 218, 85); fill: rgb(244, 244, 244);"/>
    <path d="M384 220 l0 -119 31.5 0 31.5 0 0 119 0 119 -31.5 0 -31.5 0 0 -119z" style="stroke: rgb(186, 218, 85); fill: rgb(244, 244, 244);"/>
  </g>
  <g fill="#ff7200" transform="matrix(1, 0, 0, 1, -427.953857, -78.749847)">
    <path d="M404.3 74.6 c-10.8 -3.5 -20.6 -12.5 -24.4 -22.4 -3 -7.9 -3 -19.5 0 -27.4 3.1 -8 10.5 -15.9 18.9 -20 6.1 -3 7.4 -3.3 16.2 -3.3 8.6 0 10.1 0.3 16.1 3.1 8.9 4.3 14.2 9.3 18.1 17.2 3.1 6.2 3.3 7.4 3.3 16.7 0 9.3 -0.2 10.5 -3.3 16.7 -6.1 12.4 -18.1 19.9 -32.7 20.5 -4.9 0.2 -9.6 -0.2 -12.2 -1.1z"/>
  </g>
</svg>